<svg width="956" height="151" viewBox="0 0 956 151" fill="none" xmlns="http://www.w3.org/2000/svg">
<path d="M109.52 82.9538V88.9592H107.497V73.619H113.155C114.834 73.619 116.147 74.0475 117.095 74.9044C118.05 75.7613 118.528 76.8957 118.528 78.3075C118.528 79.7965 118.061 80.9449 117.127 81.7527C116.2 82.5534 114.869 82.9538 113.134 82.9538H109.52ZM109.52 81.2996H113.155C114.236 81.2996 115.065 81.0468 115.641 80.5411C116.217 80.0283 116.505 79.2908 116.505 78.3285C116.505 77.4154 116.217 76.6849 115.641 76.1371C115.065 75.5892 114.275 75.3047 113.271 75.2837H109.52V81.2996ZM295.162 88.9592H293.139V73.619H295.162V88.9592ZM429.841 84.0916C429.652 85.7142 429.051 86.9679 428.04 87.8529C427.035 88.7309 425.697 89.1699 424.025 89.1699C422.213 89.1699 420.759 88.5202 419.664 87.2208C418.575 85.9214 418.03 84.1829 418.03 82.0055V80.5305C418.03 79.1047 418.283 77.8509 418.789 76.7692C419.302 75.6875 420.025 74.8587 420.959 74.2828C421.894 73.6998 422.975 73.4083 424.204 73.4083C425.834 73.4083 427.14 73.8648 428.124 74.778C429.107 75.684 429.68 76.9413 429.841 78.5498H427.808C427.632 77.3276 427.249 76.4426 426.659 75.8948C426.076 75.3469 425.258 75.073 424.204 75.073C422.912 75.073 421.897 75.5506 421.16 76.5058C420.429 77.4611 420.064 78.8202 420.064 80.5832V82.0688C420.064 83.7334 420.412 85.0574 421.107 86.0408C421.802 87.0241 422.775 87.5158 424.025 87.5158C425.149 87.5158 426.01 87.2629 426.607 86.7572C427.211 86.2445 427.611 85.3559 427.808 84.0916H429.841ZM553.311 84.9556H546.884L545.44 88.9592H543.354L549.212 73.619H550.982L556.851 88.9592H554.775L553.311 84.9556ZM547.495 83.2909H552.71L550.097 76.116L547.495 83.2909Z" fill="#85BABF"/>
<path d="M126.314 79.3084C126.019 79.2592 125.699 79.2346 125.355 79.2346C124.077 79.2346 123.21 79.779 122.753 80.8677V88.9592H120.804V77.5594H122.7L122.732 78.8764C123.371 77.8579 124.277 77.3487 125.45 77.3487C125.829 77.3487 126.117 77.3979 126.314 77.4962V79.3084ZM127.389 83.1539C127.389 82.0371 127.606 81.0327 128.042 80.1407C128.484 79.2487 129.096 78.5603 129.875 78.0757C130.662 77.591 131.557 77.3487 132.562 77.3487C134.114 77.3487 135.368 77.886 136.323 78.9607C137.285 80.0353 137.767 81.4647 137.767 83.2488V83.3857C137.767 84.4955 137.552 85.4929 137.124 86.3779C136.702 87.2559 136.095 87.9407 135.301 88.4324C134.514 88.9241 133.608 89.1699 132.583 89.1699C131.038 89.1699 129.784 88.6326 128.822 87.5579C127.866 86.4833 127.389 85.0609 127.389 83.2909V83.1539ZM129.348 83.3857C129.348 84.65 129.64 85.665 130.223 86.4306C130.813 87.1962 131.6 87.579 132.583 87.579C133.573 87.579 134.36 87.1927 134.943 86.4201C135.526 85.6404 135.817 84.5517 135.817 83.1539C135.817 81.9037 135.519 80.8923 134.922 80.1196C134.332 79.34 133.545 78.9501 132.562 78.9501C131.6 78.9501 130.823 79.3329 130.233 80.0986C129.643 80.8642 129.348 81.9599 129.348 83.3857ZM144.783 87.579C145.479 87.579 146.086 87.3683 146.606 86.9469C147.126 86.5254 147.414 85.9986 147.47 85.3665H149.314C149.279 86.0197 149.054 86.6413 148.64 87.2313C148.225 87.8213 147.67 88.2919 146.975 88.6431C146.287 88.9943 145.556 89.1699 144.783 89.1699C143.231 89.1699 141.995 88.6537 141.075 87.6211C140.162 86.5816 139.705 85.1628 139.705 83.3647V83.0381C139.705 81.9283 139.909 80.9414 140.316 80.0775C140.724 79.2135 141.307 78.5428 142.065 78.0651C142.831 77.5875 143.733 77.3487 144.773 77.3487C146.051 77.3487 147.112 77.7315 147.955 78.4971C148.805 79.2627 149.258 80.2566 149.314 81.4787H147.47C147.414 80.7412 147.133 80.1372 146.627 79.6666C146.128 79.189 145.51 78.9501 144.773 78.9501C143.783 78.9501 143.013 79.3084 142.466 80.0248C141.925 80.7342 141.654 81.7632 141.654 83.1118V83.4806C141.654 84.794 141.925 85.8055 142.466 86.5149C143.006 87.2243 143.779 87.579 144.783 87.579ZM156.236 89.1699C154.691 89.1699 153.433 88.6642 152.464 87.6528C151.495 86.6343 151.01 85.2752 151.01 83.5754V83.2172C151.01 82.0863 151.224 81.0784 151.653 80.1934C152.088 79.3013 152.692 78.606 153.465 78.1073C154.245 77.6016 155.087 77.3487 155.994 77.3487C157.476 77.3487 158.628 77.8369 159.449 78.8132C160.271 79.7895 160.682 81.1873 160.682 83.0064V83.8177H152.959C152.987 84.9415 153.314 85.8511 153.939 86.5465C154.571 87.2348 155.372 87.579 156.341 87.579C157.03 87.579 157.613 87.4385 158.09 87.1576C158.568 86.8766 158.986 86.5043 159.344 86.0408L160.535 86.9679C159.579 88.4359 158.146 89.1699 156.236 89.1699ZM155.994 78.9501C155.207 78.9501 154.547 79.2381 154.013 79.8141C153.479 80.383 153.149 81.1837 153.022 82.2163H158.733V82.0688C158.677 81.0784 158.41 80.3128 157.932 79.7719C157.455 79.2241 156.808 78.9501 155.994 78.9501ZM169.585 85.9354C169.585 85.4086 169.385 85.0012 168.984 84.7133C168.591 84.4182 167.899 84.1654 166.909 83.9547C165.925 83.744 165.142 83.4911 164.559 83.1961C163.983 82.9011 163.555 82.5499 163.274 82.1425C163 81.7351 162.863 81.2505 162.863 80.6886C162.863 79.7544 163.256 78.9642 164.043 78.318C164.837 77.6718 165.848 77.3487 167.077 77.3487C168.37 77.3487 169.416 77.6823 170.217 78.3496C171.025 79.0169 171.429 79.8703 171.429 80.9098H169.469C169.469 80.376 169.241 79.9159 168.784 79.5296C168.335 79.1433 167.766 78.9501 167.077 78.9501C166.368 78.9501 165.813 79.1047 165.413 79.4137C165.012 79.7228 164.812 80.1266 164.812 80.6253C164.812 81.0959 164.998 81.4507 165.37 81.6895C165.743 81.9283 166.414 82.1566 167.383 82.3743C168.359 82.592 169.149 82.8519 169.753 83.1539C170.357 83.456 170.803 83.8212 171.091 84.2497C171.386 84.6711 171.534 85.1874 171.534 85.7984C171.534 86.8169 171.127 87.6352 170.312 88.2533C169.497 88.8644 168.44 89.1699 167.14 89.1699C166.227 89.1699 165.42 89.0084 164.717 88.6853C164.015 88.3622 163.463 87.9126 163.063 87.3367C162.67 86.7537 162.473 86.1251 162.473 85.4508H164.422C164.457 86.104 164.717 86.6238 165.202 87.0101C165.694 87.3894 166.34 87.579 167.14 87.579C167.878 87.579 168.468 87.4315 168.91 87.1365C169.36 86.8345 169.585 86.4341 169.585 85.9354ZM180.711 85.9354C180.711 85.4086 180.51 85.0012 180.11 84.7133C179.717 84.4182 179.025 84.1654 178.035 83.9547C177.051 83.744 176.268 83.4911 175.685 83.1961C175.109 82.9011 174.681 82.5499 174.4 82.1425C174.126 81.7351 173.989 81.2505 173.989 80.6886C173.989 79.7544 174.382 78.9642 175.169 78.318C175.962 77.6718 176.974 77.3487 178.203 77.3487C179.496 77.3487 180.542 77.6823 181.343 78.3496C182.151 79.0169 182.554 79.8703 182.554 80.9098H180.595C180.595 80.376 180.366 79.9159 179.91 79.5296C179.46 79.1433 178.891 78.9501 178.203 78.9501C177.494 78.9501 176.939 79.1047 176.538 79.4137C176.138 79.7228 175.938 80.1266 175.938 80.6253C175.938 81.0959 176.124 81.4507 176.496 81.6895C176.869 81.9283 177.539 82.1566 178.509 82.3743C179.485 82.592 180.275 82.8519 180.879 83.1539C181.483 83.456 181.929 83.8212 182.217 84.2497C182.512 84.6711 182.66 85.1874 182.66 85.7984C182.66 86.8169 182.252 87.6352 181.438 88.2533C180.623 88.8644 179.566 89.1699 178.266 89.1699C177.353 89.1699 176.545 89.0084 175.843 88.6853C175.141 88.3622 174.589 87.9126 174.189 87.3367C173.796 86.7537 173.599 86.1251 173.599 85.4508H175.548C175.583 86.104 175.843 86.6238 176.328 87.0101C176.819 87.3894 177.466 87.579 178.266 87.579C179.004 87.579 179.594 87.4315 180.036 87.1365C180.486 86.8345 180.711 86.4341 180.711 85.9354ZM192.237 88.9592C192.124 88.7344 192.033 88.3341 191.963 87.7581C191.057 88.6993 189.975 89.1699 188.718 89.1699C187.594 89.1699 186.67 88.8538 185.947 88.2217C185.231 87.5825 184.872 86.7748 184.872 85.7984C184.872 84.6114 185.322 83.6913 186.221 83.0381C187.127 82.3778 188.398 82.0477 190.035 82.0477H191.931V81.1521C191.931 80.4708 191.728 79.93 191.32 79.5296C190.913 79.1222 190.312 78.9185 189.519 78.9185C188.823 78.9185 188.24 79.0941 187.77 79.4453C187.299 79.7965 187.064 80.2215 187.064 80.7202H185.104C185.104 80.1512 185.304 79.6034 185.705 79.0766C186.112 78.5428 186.66 78.1213 187.348 77.8123C188.044 77.5032 188.806 77.3487 189.634 77.3487C190.948 77.3487 191.977 77.6788 192.722 78.3391C193.466 78.9923 193.852 79.8949 193.88 81.0468V86.2936C193.88 87.3402 194.014 88.1725 194.281 88.7906V88.9592H192.237ZM189.002 87.4736C189.613 87.4736 190.193 87.3156 190.741 86.9995C191.289 86.6835 191.685 86.2726 191.931 85.7668V83.4279H190.404C188.015 83.4279 186.821 84.1268 186.821 85.5245C186.821 86.1356 187.025 86.6132 187.433 86.9574C187.84 87.3016 188.363 87.4736 189.002 87.4736ZM198.769 77.5594L198.822 78.8237C199.658 77.8404 200.785 77.3487 202.204 77.3487C203.798 77.3487 204.883 77.9598 205.459 79.1819C205.839 78.6341 206.33 78.1916 206.934 77.8544C207.545 77.5173 208.265 77.3487 209.094 77.3487C211.595 77.3487 212.866 78.6727 212.908 81.3207V88.9592H210.959V81.4366C210.959 80.6218 210.773 80.0143 210.401 79.6139C210.028 79.2065 209.403 79.0028 208.525 79.0028C207.802 79.0028 207.201 79.2206 206.724 79.656C206.246 80.0845 205.969 80.664 205.891 81.3945V88.9592H203.932V81.4893C203.932 79.8316 203.12 79.0028 201.498 79.0028C200.22 79.0028 199.345 79.5472 198.874 80.6359V88.9592H196.925V77.5594H198.769ZM220.589 89.1699C219.044 89.1699 217.786 88.6642 216.817 87.6528C215.848 86.6343 215.363 85.2752 215.363 83.5754V83.2172C215.363 82.0863 215.577 81.0784 216.006 80.1934C216.441 79.3013 217.045 78.606 217.818 78.1073C218.598 77.6016 219.44 77.3487 220.346 77.3487C221.829 77.3487 222.98 77.8369 223.802 78.8132C224.624 79.7895 225.035 81.1873 225.035 83.0064V83.8177H217.312C217.34 84.9415 217.667 85.8511 218.292 86.5465C218.924 87.2348 219.725 87.579 220.694 87.579C221.383 87.579 221.965 87.4385 222.443 87.1576C222.921 86.8766 223.339 86.5043 223.697 86.0408L224.887 86.9679C223.932 88.4359 222.499 89.1699 220.589 89.1699ZM220.346 78.9501C219.56 78.9501 218.9 79.2381 218.366 79.8141C217.832 80.383 217.502 81.1837 217.375 82.2163H223.086V82.0688C223.03 81.0784 222.763 80.3128 222.285 79.7719C221.807 79.2241 221.161 78.9501 220.346 78.9501ZM229.144 77.5594L229.207 78.9923C230.078 77.8966 231.216 77.3487 232.621 77.3487C235.03 77.3487 236.245 78.7078 236.266 81.4261V88.9592H234.317V81.4155C234.31 80.5937 234.12 79.9862 233.748 79.5928C233.383 79.1995 232.81 79.0028 232.031 79.0028C231.399 79.0028 230.844 79.1714 230.366 79.5085C229.888 79.8457 229.516 80.2882 229.249 80.8361V88.9592H227.3V77.5594H229.144ZM241.85 74.799V77.5594H243.978V79.066H241.85V86.1356C241.85 86.5921 241.945 86.9363 242.135 87.1681C242.324 87.3929 242.647 87.5053 243.104 87.5053C243.329 87.5053 243.638 87.4631 244.031 87.3788V88.9592C243.518 89.0997 243.02 89.1699 242.535 89.1699C241.664 89.1699 241.007 88.9065 240.565 88.3797C240.122 87.8529 239.901 87.1049 239.901 86.1356V79.066H237.825V77.5594H239.901V74.799H241.85ZM245.538 83.1539C245.538 82.0371 245.755 81.0327 246.191 80.1407C246.633 79.2487 247.244 78.5603 248.024 78.0757C248.811 77.591 249.706 77.3487 250.711 77.3487C252.263 77.3487 253.517 77.886 254.472 78.9607C255.434 80.0353 255.915 81.4647 255.915 83.2488V83.3857C255.915 84.4955 255.701 85.4929 255.273 86.3779C254.851 87.2559 254.244 87.9407 253.45 88.4324C252.663 88.9241 251.757 89.1699 250.732 89.1699C249.187 89.1699 247.933 88.6326 246.971 87.5579C246.015 86.4833 245.538 85.0609 245.538 83.2909V83.1539ZM247.497 83.3857C247.497 84.65 247.789 85.665 248.372 86.4306C248.962 87.1962 249.749 87.579 250.732 87.579C251.722 87.579 252.509 87.1927 253.092 86.4201C253.675 85.6404 253.966 84.5517 253.966 83.1539C253.966 81.9037 253.668 80.8923 253.071 80.1196C252.481 79.34 251.694 78.9501 250.711 78.9501C249.749 78.9501 248.972 79.3329 248.382 80.0986C247.792 80.8642 247.497 81.9599 247.497 83.3857ZM263.238 83.1645C263.238 81.4155 263.652 80.0108 264.481 78.9501C265.31 77.8825 266.395 77.3487 267.737 77.3487C269.071 77.3487 270.128 77.8053 270.908 78.7184V72.7761H272.857V88.9592H271.066L270.971 87.737C270.192 88.6923 269.106 89.1699 267.716 89.1699C266.395 89.1699 265.317 88.6291 264.481 87.5474C263.652 86.4657 263.238 85.0539 263.238 83.312V83.1645ZM265.187 83.3857C265.187 84.6781 265.454 85.6896 265.988 86.4201C266.522 87.1505 267.259 87.5158 268.2 87.5158C269.436 87.5158 270.339 86.9609 270.908 85.8511V80.6148C270.325 79.5402 269.429 79.0028 268.221 79.0028C267.266 79.0028 266.522 79.3716 265.988 80.1091C265.454 80.8466 265.187 81.9388 265.187 83.3857ZM280.622 89.1699C279.077 89.1699 277.819 88.6642 276.85 87.6528C275.881 86.6343 275.396 85.2752 275.396 83.5754V83.2172C275.396 82.0863 275.61 81.0784 276.039 80.1934C276.474 79.3013 277.078 78.606 277.851 78.1073C278.631 77.6016 279.474 77.3487 280.38 77.3487C281.862 77.3487 283.014 77.8369 283.835 78.8132C284.657 79.7895 285.068 81.1873 285.068 83.0064V83.8177H277.345C277.373 84.9415 277.7 85.8511 278.325 86.5465C278.957 87.2348 279.758 87.579 280.727 87.579C281.416 87.579 281.999 87.4385 282.476 87.1576C282.954 86.8766 283.372 86.5043 283.73 86.0408L284.921 86.9679C283.965 88.4359 282.533 89.1699 280.622 89.1699ZM280.38 78.9501C279.593 78.9501 278.933 79.2381 278.399 79.8141C277.865 80.383 277.535 81.1837 277.409 82.2163H283.119V82.0688C283.063 81.0784 282.796 80.3128 282.318 79.7719C281.841 79.2241 281.194 78.9501 280.38 78.9501ZM300.398 77.5594L300.45 78.8237C301.286 77.8404 302.414 77.3487 303.833 77.3487C305.427 77.3487 306.512 77.9598 307.088 79.1819C307.467 78.6341 307.959 78.1916 308.563 77.8544C309.174 77.5173 309.894 77.3487 310.723 77.3487C313.223 77.3487 314.495 78.6727 314.537 81.3207V88.9592H312.588V81.4366C312.588 80.6218 312.402 80.0143 312.029 79.6139C311.657 79.2065 311.032 79.0028 310.154 79.0028C309.431 79.0028 308.83 79.2206 308.352 79.656C307.875 80.0845 307.597 80.664 307.52 81.3945V88.9592H305.56V81.4893C305.56 79.8316 304.749 79.0028 303.127 79.0028C301.848 79.0028 300.974 79.5472 300.503 80.6359V88.9592H298.554V77.5594H300.398ZM324.525 88.9592C324.413 88.7344 324.321 88.3341 324.251 87.7581C323.345 88.6993 322.263 89.1699 321.006 89.1699C319.882 89.1699 318.958 88.8538 318.235 88.2217C317.519 87.5825 317.16 86.7748 317.16 85.7984C317.16 84.6114 317.61 83.6913 318.509 83.0381C319.415 82.3778 320.686 82.0477 322.323 82.0477H324.219V81.1521C324.219 80.4708 324.016 79.93 323.608 79.5296C323.201 79.1222 322.6 78.9185 321.807 78.9185C321.111 78.9185 320.528 79.0941 320.058 79.4453C319.587 79.7965 319.352 80.2215 319.352 80.7202H317.392C317.392 80.1512 317.592 79.6034 317.993 79.0766C318.4 78.5428 318.948 78.1213 319.636 77.8123C320.332 77.5032 321.094 77.3487 321.923 77.3487C323.236 77.3487 324.265 77.6788 325.01 78.3391C325.754 78.9923 326.14 79.8949 326.168 81.0468V86.2936C326.168 87.3402 326.302 88.1725 326.569 88.7906V88.9592H324.525ZM321.29 87.4736C321.901 87.4736 322.481 87.3156 323.029 86.9995C323.577 86.6835 323.974 86.2726 324.219 85.7668V83.4279H322.692C320.304 83.4279 319.109 84.1268 319.109 85.5245C319.109 86.1356 319.313 86.6132 319.721 86.9574C320.128 87.3016 320.651 87.4736 321.29 87.4736ZM328.76 83.1645C328.76 81.3874 329.171 79.9756 329.993 78.9291C330.815 77.8755 331.903 77.3487 333.259 77.3487C334.65 77.3487 335.735 77.8404 336.515 78.8237L336.61 77.5594H338.39V88.6853C338.39 90.1603 337.951 91.3227 337.073 92.1726C336.202 93.0225 335.029 93.4475 333.554 93.4475C332.732 93.4475 331.928 93.2719 331.141 92.9207C330.355 92.5695 329.754 92.0883 329.34 91.4773L330.351 90.3078C331.187 91.3403 332.209 91.8566 333.417 91.8566C334.365 91.8566 335.103 91.5896 335.63 91.0558C336.163 90.522 336.43 89.7705 336.43 88.8012V87.8213C335.651 88.7204 334.587 89.1699 333.238 89.1699C331.903 89.1699 330.822 88.6326 329.993 87.5579C329.171 86.4833 328.76 85.0188 328.76 83.1645ZM330.72 83.3857C330.72 84.6711 330.983 85.6826 331.51 86.4201C332.037 87.1505 332.774 87.5158 333.723 87.5158C334.952 87.5158 335.854 86.9574 336.43 85.8406V80.6359C335.833 79.5472 334.938 79.0028 333.744 79.0028C332.796 79.0028 332.055 79.3716 331.521 80.1091C330.987 80.8466 330.72 81.9388 330.72 83.3857ZM346.071 89.1699C344.525 89.1699 343.268 88.6642 342.299 87.6528C341.33 86.6343 340.845 85.2752 340.845 83.5754V83.2172C340.845 82.0863 341.059 81.0784 341.488 80.1934C341.923 79.3013 342.527 78.606 343.3 78.1073C344.079 77.6016 344.922 77.3487 345.828 77.3487C347.31 77.3487 348.462 77.8369 349.284 78.8132C350.106 79.7895 350.517 81.1873 350.517 83.0064V83.8177H342.794C342.822 84.9415 343.149 85.8511 343.774 86.5465C344.406 87.2348 345.207 87.579 346.176 87.579C346.864 87.579 347.447 87.4385 347.925 87.1576C348.403 86.8766 348.821 86.5043 349.179 86.0408L350.369 86.9679C349.414 88.4359 347.981 89.1699 346.071 89.1699ZM345.828 78.9501C345.042 78.9501 344.381 79.2381 343.848 79.8141C343.314 80.383 342.984 81.1837 342.857 82.2163H348.568V82.0688C348.511 81.0784 348.245 80.3128 347.767 79.7719C347.289 79.2241 346.643 78.9501 345.828 78.9501ZM354.626 77.5594L354.689 78.9923C355.56 77.8966 356.698 77.3487 358.103 77.3487C360.512 77.3487 361.727 78.7078 361.748 81.4261V88.9592H359.799V81.4155C359.792 80.5937 359.602 79.9862 359.23 79.5928C358.865 79.1995 358.292 79.0028 357.513 79.0028C356.88 79.0028 356.326 79.1714 355.848 79.5085C355.37 79.8457 354.998 80.2882 354.731 80.8361V88.9592H352.782V77.5594H354.626ZM371.325 85.9354C371.325 85.4086 371.125 85.0012 370.725 84.7133C370.331 84.4182 369.639 84.1654 368.649 83.9547C367.666 83.744 366.883 83.4911 366.3 83.1961C365.724 82.9011 365.295 82.5499 365.014 82.1425C364.74 81.7351 364.603 81.2505 364.603 80.6886C364.603 79.7544 364.997 78.9642 365.783 78.318C366.577 77.6718 367.588 77.3487 368.818 77.3487C370.11 77.3487 371.157 77.6823 371.957 78.3496C372.765 79.0169 373.169 79.8703 373.169 80.9098H371.209C371.209 80.376 370.981 79.9159 370.524 79.5296C370.075 79.1433 369.506 78.9501 368.818 78.9501C368.108 78.9501 367.553 79.1047 367.153 79.4137C366.753 79.7228 366.552 80.1266 366.552 80.6253C366.552 81.0959 366.739 81.4507 367.111 81.6895C367.483 81.9283 368.154 82.1566 369.123 82.3743C370.099 82.592 370.89 82.8519 371.494 83.1539C372.098 83.456 372.544 83.8212 372.832 84.2497C373.127 84.6711 373.274 85.1874 373.274 85.7984C373.274 86.8169 372.867 87.6352 372.052 88.2533C371.237 88.8644 370.18 89.1699 368.881 89.1699C367.968 89.1699 367.16 89.0084 366.458 88.6853C365.755 88.3622 365.204 87.9126 364.803 87.3367C364.41 86.7537 364.213 86.1251 364.213 85.4508H366.163C366.198 86.104 366.458 86.6238 366.942 87.0101C367.434 87.3894 368.08 87.579 368.881 87.579C369.618 87.579 370.208 87.4315 370.651 87.1365C371.1 86.8345 371.325 86.4341 371.325 85.9354ZM390.795 83.3857C390.795 85.1206 390.399 86.5184 389.605 87.579C388.811 88.6396 387.736 89.1699 386.381 89.1699C384.997 89.1699 383.908 88.7309 383.115 87.8529V93.3421H381.166V77.5594H382.946L383.041 78.8237C383.835 77.8404 384.937 77.3487 386.349 77.3487C387.719 77.3487 388.801 77.865 389.594 78.8975C390.395 79.93 390.795 81.3664 390.795 83.2066V83.3857ZM388.846 83.1645C388.846 81.8791 388.572 80.8642 388.024 80.1196C387.477 79.3751 386.725 79.0028 385.77 79.0028C384.59 79.0028 383.705 79.5261 383.115 80.5727V86.0197C383.698 87.0592 384.59 87.579 385.791 87.579C386.725 87.579 387.466 87.2102 388.014 86.4727C388.569 85.7282 388.846 84.6255 388.846 83.1645ZM392.766 83.1539C392.766 82.0371 392.983 81.0327 393.419 80.1407C393.861 79.2487 394.472 78.5603 395.252 78.0757C396.039 77.591 396.934 77.3487 397.939 77.3487C399.491 77.3487 400.745 77.886 401.7 78.9607C402.662 80.0353 403.143 81.4647 403.143 83.2488V83.3857C403.143 84.4955 402.929 85.4929 402.501 86.3779C402.079 87.2559 401.472 87.9407 400.678 88.4324C399.891 88.9241 398.985 89.1699 397.96 89.1699C396.414 89.1699 395.161 88.6326 394.198 87.5579C393.243 86.4833 392.766 85.0609 392.766 83.2909V83.1539ZM394.725 83.3857C394.725 84.65 395.017 85.665 395.6 86.4306C396.19 87.1962 396.976 87.579 397.96 87.579C398.95 87.579 399.737 87.1927 400.32 86.4201C400.903 85.6404 401.194 84.5517 401.194 83.1539C401.194 81.9037 400.896 80.8923 400.299 80.1196C399.709 79.34 398.922 78.9501 397.939 78.9501C396.976 78.9501 396.2 79.3329 395.61 80.0986C395.02 80.8642 394.725 81.9599 394.725 83.3857ZM411.098 79.3084C410.803 79.2592 410.483 79.2346 410.139 79.2346C408.861 79.2346 407.993 79.779 407.537 80.8677V88.9592H405.588V77.5594H407.484L407.516 78.8764C408.155 77.8579 409.061 77.3487 410.234 77.3487C410.613 77.3487 410.901 77.3979 411.098 77.4962V79.3084ZM439.344 88.9592C439.232 88.7344 439.141 88.3341 439.071 87.7581C438.164 88.6993 437.083 89.1699 435.826 89.1699C434.702 89.1699 433.778 88.8538 433.055 88.2217C432.338 87.5825 431.98 86.7748 431.98 85.7984C431.98 84.6114 432.429 83.6913 433.329 83.0381C434.235 82.3778 435.506 82.0477 437.143 82.0477H439.039V81.1521C439.039 80.4708 438.835 79.93 438.428 79.5296C438.02 79.1222 437.42 78.9185 436.626 78.9185C435.931 78.9185 435.348 79.0941 434.877 79.4453C434.407 79.7965 434.171 80.2215 434.171 80.7202H432.212C432.212 80.1512 432.412 79.6034 432.812 79.0766C433.22 78.5428 433.768 78.1213 434.456 77.8123C435.151 77.5032 435.913 77.3487 436.742 77.3487C438.056 77.3487 439.085 77.6788 439.829 78.3391C440.574 78.9923 440.96 79.8949 440.988 81.0468V86.2936C440.988 87.3402 441.122 88.1725 441.388 88.7906V88.9592H439.344ZM436.11 87.4736C436.721 87.4736 437.301 87.3156 437.848 86.9995C438.396 86.6835 438.793 86.2726 439.039 85.7668V83.4279H437.511C435.123 83.4279 433.929 84.1268 433.929 85.5245C433.929 86.1356 434.133 86.6132 434.54 86.9574C434.948 87.3016 435.471 87.4736 436.11 87.4736ZM446.688 74.799V77.5594H448.816V79.066H446.688V86.1356C446.688 86.5921 446.783 86.9363 446.972 87.1681C447.162 87.3929 447.485 87.5053 447.942 87.5053C448.167 87.5053 448.476 87.4631 448.869 87.3788V88.9592C448.356 89.0997 447.857 89.1699 447.373 89.1699C446.502 89.1699 445.845 88.9065 445.403 88.3797C444.96 87.8529 444.739 87.1049 444.739 86.1356V79.066H442.663V77.5594H444.739V74.799H446.688ZM455.833 89.1699C454.288 89.1699 453.031 88.6642 452.061 87.6528C451.092 86.6343 450.607 85.2752 450.607 83.5754V83.2172C450.607 82.0863 450.822 81.0784 451.25 80.1934C451.685 79.3013 452.29 78.606 453.062 78.1073C453.842 77.6016 454.685 77.3487 455.591 77.3487C457.073 77.3487 458.225 77.8369 459.047 78.8132C459.868 79.7895 460.279 81.1873 460.279 83.0064V83.8177H452.556C452.585 84.9415 452.911 85.8511 453.536 86.5465C454.168 87.2348 454.969 87.579 455.938 87.579C456.627 87.579 457.21 87.4385 457.687 87.1576C458.165 86.8766 458.583 86.5043 458.941 86.0408L460.132 86.9679C459.176 88.4359 457.744 89.1699 455.833 89.1699ZM455.591 78.9501C454.804 78.9501 454.144 79.2381 453.61 79.8141C453.076 80.383 452.746 81.1837 452.62 82.2163H458.33V82.0688C458.274 81.0784 458.007 80.3128 457.529 79.7719C457.052 79.2241 456.406 78.9501 455.591 78.9501ZM462.081 83.1645C462.081 81.3874 462.492 79.9756 463.314 78.9291C464.135 77.8755 465.224 77.3487 466.58 77.3487C467.97 77.3487 469.056 77.8404 469.835 78.8237L469.93 77.5594H471.711V88.6853C471.711 90.1603 471.272 91.3227 470.394 92.1726C469.523 93.0225 468.35 93.4475 466.875 93.4475C466.053 93.4475 465.249 93.2719 464.462 92.9207C463.675 92.5695 463.075 92.0883 462.66 91.4773L463.672 90.3078C464.508 91.3403 465.53 91.8566 466.738 91.8566C467.686 91.8566 468.423 91.5896 468.95 91.0558C469.484 90.522 469.751 89.7705 469.751 88.8012V87.8213C468.971 88.7204 467.907 89.1699 466.559 89.1699C465.224 89.1699 464.142 88.6326 463.314 87.5579C462.492 86.4833 462.081 85.0188 462.081 83.1645ZM464.041 83.3857C464.041 84.6711 464.304 85.6826 464.831 86.4201C465.358 87.1505 466.095 87.5158 467.043 87.5158C468.272 87.5158 469.175 86.9574 469.751 85.8406V80.6359C469.154 79.5472 468.258 79.0028 467.064 79.0028C466.116 79.0028 465.375 79.3716 464.841 80.1091C464.307 80.8466 464.041 81.9388 464.041 83.3857ZM474.144 83.1539C474.144 82.0371 474.362 81.0327 474.798 80.1407C475.24 79.2487 475.851 78.5603 476.631 78.0757C477.418 77.591 478.313 77.3487 479.317 77.3487C480.87 77.3487 482.124 77.886 483.079 78.9607C484.041 80.0353 484.522 81.4647 484.522 83.2488V83.3857C484.522 84.4955 484.308 85.4929 483.88 86.3779C483.458 87.2559 482.851 87.9407 482.057 88.4324C481.27 88.9241 480.364 89.1699 479.339 89.1699C477.793 89.1699 476.54 88.6326 475.577 87.5579C474.622 86.4833 474.144 85.0609 474.144 83.2909V83.1539ZM476.104 83.3857C476.104 84.65 476.396 85.665 476.979 86.4306C477.569 87.1962 478.355 87.579 479.339 87.579C480.329 87.579 481.116 87.1927 481.699 86.4201C482.282 85.6404 482.573 84.5517 482.573 83.1539C482.573 81.9037 482.275 80.8923 481.678 80.1196C481.088 79.34 480.301 78.9501 479.317 78.9501C478.355 78.9501 477.579 79.3329 476.989 80.0986C476.399 80.8642 476.104 81.9599 476.104 83.3857ZM492.477 79.3084C492.182 79.2592 491.862 79.2346 491.518 79.2346C490.24 79.2346 489.372 79.779 488.916 80.8677V88.9592H486.967V77.5594H488.863L488.895 78.8764C489.534 77.8579 490.44 77.3487 491.613 77.3487C491.992 77.3487 492.28 77.3979 492.477 77.4962V79.3084ZM496.396 88.9592H494.447V77.5594H496.396V88.9592ZM494.289 74.5356C494.289 74.2196 494.384 73.9526 494.573 73.7349C494.77 73.5172 495.058 73.4083 495.437 73.4083C495.817 73.4083 496.105 73.5172 496.301 73.7349C496.498 73.9526 496.596 74.2196 496.596 74.5356C496.596 74.8517 496.498 75.1151 496.301 75.3258C496.105 75.5365 495.817 75.6419 495.437 75.6419C495.058 75.6419 494.77 75.5365 494.573 75.3258C494.384 75.1151 494.289 74.8517 494.289 74.5356ZM506.563 88.9592C506.451 88.7344 506.359 88.3341 506.289 87.7581C505.383 88.6993 504.301 89.1699 503.044 89.1699C501.92 89.1699 500.997 88.8538 500.273 88.2217C499.557 87.5825 499.199 86.7748 499.199 85.7984C499.199 84.6114 499.648 83.6913 500.547 83.0381C501.453 82.3778 502.725 82.0477 504.361 82.0477H506.258V81.1521C506.258 80.4708 506.054 79.93 505.647 79.5296C505.239 79.1222 504.639 78.9185 503.845 78.9185C503.15 78.9185 502.567 79.0941 502.096 79.4453C501.625 79.7965 501.39 80.2215 501.39 80.7202H499.43C499.43 80.1512 499.631 79.6034 500.031 79.0766C500.438 78.5428 500.986 78.1213 501.675 77.8123C502.37 77.5032 503.132 77.3487 503.961 77.3487C505.274 77.3487 506.303 77.6788 507.048 78.3391C507.792 78.9923 508.179 79.8949 508.207 81.0468V86.2936C508.207 87.3402 508.34 88.1725 508.607 88.7906V88.9592H506.563ZM503.329 87.4736C503.94 87.4736 504.519 87.3156 505.067 86.9995C505.615 86.6835 506.012 86.2726 506.258 85.7668V83.4279H504.73C502.342 83.4279 501.148 84.1268 501.148 85.5245C501.148 86.1356 501.351 86.6132 501.759 86.9574C502.166 87.3016 502.69 87.4736 503.329 87.4736ZM517.9 85.9354C517.9 85.4086 517.7 85.0012 517.299 84.7133C516.906 84.4182 516.214 84.1654 515.224 83.9547C514.24 83.744 513.457 83.4911 512.874 83.1961C512.298 82.9011 511.87 82.5499 511.589 82.1425C511.315 81.7351 511.178 81.2505 511.178 80.6886C511.178 79.7544 511.571 78.9642 512.358 78.318C513.152 77.6718 514.163 77.3487 515.392 77.3487C516.685 77.3487 517.731 77.6823 518.532 78.3496C519.34 79.0169 519.744 79.8703 519.744 80.9098H517.784C517.784 80.376 517.556 79.9159 517.099 79.5296C516.65 79.1433 516.081 78.9501 515.392 78.9501C514.683 78.9501 514.128 79.1047 513.728 79.4137C513.327 79.7228 513.127 80.1266 513.127 80.6253C513.127 81.0959 513.313 81.4507 513.685 81.6895C514.058 81.9283 514.728 82.1566 515.698 82.3743C516.674 82.592 517.464 82.8519 518.068 83.1539C518.672 83.456 519.118 83.8212 519.406 84.2497C519.701 84.6711 519.849 85.1874 519.849 85.7984C519.849 86.8169 519.442 87.6352 518.627 88.2533C517.812 88.8644 516.755 89.1699 515.455 89.1699C514.542 89.1699 513.735 89.0084 513.032 88.6853C512.33 88.3622 511.778 87.9126 511.378 87.3367C510.985 86.7537 510.788 86.1251 510.788 85.4508H512.737C512.772 86.104 513.032 86.6238 513.517 87.0101C514.009 87.3894 514.655 87.579 515.455 87.579C516.193 87.579 516.783 87.4315 517.225 87.1365C517.675 86.8345 517.9 86.4341 517.9 85.9354ZM532.471 89.1699C530.926 89.1699 529.668 88.6642 528.699 87.6528C527.73 86.6343 527.245 85.2752 527.245 83.5754V83.2172C527.245 82.0863 527.459 81.0784 527.888 80.1934C528.323 79.3013 528.927 78.606 529.7 78.1073C530.48 77.6016 531.322 77.3487 532.229 77.3487C533.711 77.3487 534.862 77.8369 535.684 78.8132C536.506 79.7895 536.917 81.1873 536.917 83.0064V83.8177H529.194C529.222 84.9415 529.549 85.8511 530.174 86.5465C530.806 87.2348 531.607 87.579 532.576 87.579C533.265 87.579 533.848 87.4385 534.325 87.1576C534.803 86.8766 535.221 86.5043 535.579 86.0408L536.769 86.9679C535.814 88.4359 534.381 89.1699 532.471 89.1699ZM532.229 78.9501C531.442 78.9501 530.782 79.2381 530.248 79.8141C529.714 80.383 529.384 81.1837 529.257 82.2163H534.968V82.0688C534.912 81.0784 534.645 80.3128 534.167 79.7719C533.689 79.2241 533.043 78.9501 532.229 78.9501ZM564.12 79.3084C563.825 79.2592 563.506 79.2346 563.162 79.2346C561.883 79.2346 561.016 79.779 560.559 80.8677V88.9592H558.61V77.5594H560.507L560.538 78.8764C561.177 77.8579 562.084 77.3487 563.257 77.3487C563.636 77.3487 563.924 77.3979 564.12 77.4962V79.3084ZM570.442 89.1699C568.897 89.1699 567.639 88.6642 566.67 87.6528C565.701 86.6343 565.216 85.2752 565.216 83.5754V83.2172C565.216 82.0863 565.43 81.0784 565.859 80.1934C566.294 79.3013 566.898 78.606 567.671 78.1073C568.451 77.6016 569.294 77.3487 570.2 77.3487C571.682 77.3487 572.834 77.8369 573.655 78.8132C574.477 79.7895 574.888 81.1873 574.888 83.0064V83.8177H567.165C567.193 84.9415 567.52 85.8511 568.145 86.5465C568.777 87.2348 569.578 87.579 570.547 87.579C571.236 87.579 571.819 87.4385 572.296 87.1576C572.774 86.8766 573.192 86.5043 573.55 86.0408L574.741 86.9679C573.785 88.4359 572.352 89.1699 570.442 89.1699ZM570.2 78.9501C569.413 78.9501 568.753 79.2381 568.219 79.8141C567.685 80.383 567.355 81.1837 567.229 82.2163H572.939V82.0688C572.883 81.0784 572.616 80.3128 572.138 79.7719C571.661 79.2241 571.014 78.9501 570.2 78.9501ZM584.191 88.9592C584.079 88.7344 583.988 88.3341 583.917 87.7581C583.011 88.6993 581.93 89.1699 580.672 89.1699C579.548 89.1699 578.625 88.8538 577.901 88.2217C577.185 87.5825 576.827 86.7748 576.827 85.7984C576.827 84.6114 577.276 83.6913 578.175 83.0381C579.081 82.3778 580.353 82.0477 581.989 82.0477H583.886V81.1521C583.886 80.4708 583.682 79.93 583.275 79.5296C582.867 79.1222 582.267 78.9185 581.473 78.9185C580.778 78.9185 580.195 79.0941 579.724 79.4453C579.253 79.7965 579.018 80.2215 579.018 80.7202H577.059C577.059 80.1512 577.259 79.6034 577.659 79.0766C578.066 78.5428 578.614 78.1213 579.303 77.8123C579.998 77.5032 580.76 77.3487 581.589 77.3487C582.902 77.3487 583.931 77.6788 584.676 78.3391C585.42 78.9923 585.807 79.8949 585.835 81.0468V86.2936C585.835 87.3402 585.968 88.1725 586.235 88.7906V88.9592H584.191ZM580.957 87.4736C581.568 87.4736 582.147 87.3156 582.695 86.9995C583.243 86.6835 583.64 86.2726 583.886 85.7668V83.4279H582.358C579.97 83.4279 578.776 84.1268 578.776 85.5245C578.776 86.1356 578.98 86.6132 579.387 86.9574C579.794 87.3016 580.318 87.4736 580.957 87.4736ZM595.528 85.9354C595.528 85.4086 595.328 85.0012 594.927 84.7133C594.534 84.4182 593.842 84.1654 592.852 83.9547C591.868 83.744 591.085 83.4911 590.502 83.1961C589.926 82.9011 589.498 82.5499 589.217 82.1425C588.943 81.7351 588.806 81.2505 588.806 80.6886C588.806 79.7544 589.199 78.9642 589.986 78.318C590.78 77.6718 591.791 77.3487 593.02 77.3487C594.313 77.3487 595.359 77.6823 596.16 78.3496C596.968 79.0169 597.372 79.8703 597.372 80.9098H595.412C595.412 80.376 595.184 79.9159 594.727 79.5296C594.278 79.1433 593.709 78.9501 593.02 78.9501C592.311 78.9501 591.756 79.1047 591.356 79.4137C590.955 79.7228 590.755 80.1266 590.755 80.6253C590.755 81.0959 590.941 81.4507 591.314 81.6895C591.686 81.9283 592.357 82.1566 593.326 82.3743C594.302 82.592 595.092 82.8519 595.696 83.1539C596.3 83.456 596.746 83.8212 597.034 84.2497C597.329 84.6711 597.477 85.1874 597.477 85.7984C597.477 86.8169 597.07 87.6352 596.255 88.2533C595.44 88.8644 594.383 89.1699 593.084 89.1699C592.17 89.1699 591.363 89.0084 590.66 88.6853C589.958 88.3622 589.407 87.9126 589.006 87.3367C588.613 86.7537 588.416 86.1251 588.416 85.4508H590.365C590.4 86.104 590.66 86.6238 591.145 87.0101C591.637 87.3894 592.283 87.579 593.084 87.579C593.821 87.579 594.411 87.4315 594.854 87.1365C595.303 86.8345 595.528 86.4341 595.528 85.9354Z" fill="#FFEDE4"/>
<path d="M83.6122 98.5418C78.0115 108.297 75.2112 113.174 71.0019 113.174C66.7926 113.174 63.9923 108.297 58.3916 98.5418L44.5348 74.4075C38.9748 64.7236 36.1948 59.8817 38.2951 56.254C40.3953 52.6263 45.9786 52.6263 57.1452 52.6263L84.8586 52.6263C96.0252 52.6263 101.608 52.6263 103.709 56.254C105.809 59.8817 103.029 64.7236 97.469 74.4075L83.6122 98.5418Z" fill="#E3E6E3"/>
<path d="M83.5552 88.2622C77.9545 98.0169 75.1542 102.894 70.9449 102.894C66.7356 102.894 63.9353 98.0169 58.3346 88.2622L53.3304 79.5464C47.7704 69.8625 44.9904 65.0205 47.0906 61.3928C49.1909 57.7651 54.7742 57.7651 65.9407 57.7651H75.9491C87.1157 57.7651 92.699 57.7651 94.7992 61.3928C96.8995 65.0205 94.1195 69.8625 88.5594 79.5464L83.5552 88.2622Z" fill="#2C3E40"/>
<path d="M68.778 61.5762C69.7436 59.8943 70.2264 59.0534 70.9522 59.0534C71.6779 59.0534 72.1607 59.8943 73.1263 61.5762L84.3525 81.1288C85.3112 82.7985 85.7905 83.6333 85.4284 84.2587C85.0662 84.8842 84.1036 84.8842 82.1783 84.8842H59.726C57.8007 84.8842 56.8381 84.8842 56.476 84.2587C56.1138 83.6333 56.5932 82.7985 57.5518 81.1288L68.778 61.5762Z" fill="#E3E6E3"/>
<path d="M68.699 66.4813C69.6647 64.7994 70.1475 63.9585 70.8732 63.9585C71.599 63.9585 72.0818 64.7994 73.0474 66.4813L80.0035 78.5966C80.9621 80.2662 81.4414 81.1011 81.0793 81.7265C80.7172 82.352 79.7545 82.352 77.8293 82.352H63.9172C61.9919 82.352 61.0293 82.352 60.6672 81.7265C60.3051 81.1011 60.7844 80.2662 61.743 78.5966L68.699 66.4813Z" fill="#2C3E40"/>
</svg>
