<svg width="425" height="47" viewBox="0 0 625 67" fill="none" xmlns="http://www.w3.org/2000/svg">
<path d="M80.2305 48.3203V55H77.9805V37.9375H84.2734C86.1406 37.9375 87.6016 38.4141 88.6562 39.3672C89.7188 40.3203 90.25 41.582 90.25 43.1523C90.25 44.8086 89.7305 46.0859 88.6914 46.9844C87.6602 47.875 86.1797 48.3203 84.25 48.3203H80.2305ZM80.2305 46.4805H84.2734C85.4766 46.4805 86.3984 46.1992 87.0391 45.6367C87.6797 45.0664 88 44.2461 88 43.1758C88 42.1602 87.6797 41.3477 87.0391 40.7383C86.3984 40.1289 85.5195 39.8125 84.4023 39.7891H80.2305V46.4805ZM98.9102 44.2656C98.582 44.2109 98.2266 44.1836 97.8438 44.1836C96.4219 44.1836 95.457 44.7891 94.9492 46V55H92.7812V42.3203H94.8906L94.9258 43.7852C95.6367 42.6523 96.6445 42.0859 97.9492 42.0859C98.3711 42.0859 98.6914 42.1406 98.9102 42.25V44.2656ZM100.105 48.543C100.105 47.3008 100.348 46.1836 100.832 45.1914C101.324 44.1992 102.004 43.4336 102.871 42.8945C103.746 42.3555 104.742 42.0859 105.859 42.0859C107.586 42.0859 108.98 42.6836 110.043 43.8789C111.113 45.0742 111.648 46.6641 111.648 48.6484V48.8008C111.648 50.0352 111.41 51.1445 110.934 52.1289C110.465 53.1055 109.789 53.8672 108.906 54.4141C108.031 54.9609 107.023 55.2344 105.883 55.2344C104.164 55.2344 102.77 54.6367 101.699 53.4414C100.637 52.2461 100.105 50.6641 100.105 48.6953V48.543ZM102.285 48.8008C102.285 50.207 102.609 51.3359 103.258 52.1875C103.914 53.0391 104.789 53.4648 105.883 53.4648C106.984 53.4648 107.859 53.0352 108.508 52.1758C109.156 51.3086 109.48 50.0977 109.48 48.543C109.48 47.1523 109.148 46.0273 108.484 45.168C107.828 44.3008 106.953 43.8672 105.859 43.8672C104.789 43.8672 103.926 44.293 103.27 45.1445C102.613 45.9961 102.285 47.2148 102.285 48.8008ZM119.453 53.4648C120.227 53.4648 120.902 53.2305 121.48 52.7617C122.059 52.293 122.379 51.707 122.441 51.0039H124.492C124.453 51.7305 124.203 52.4219 123.742 53.0781C123.281 53.7344 122.664 54.2578 121.891 54.6484C121.125 55.0391 120.312 55.2344 119.453 55.2344C117.727 55.2344 116.352 54.6602 115.328 53.5117C114.312 52.3555 113.805 50.7773 113.805 48.7773V48.4141C113.805 47.1797 114.031 46.082 114.484 45.1211C114.938 44.1602 115.586 43.4141 116.43 42.8828C117.281 42.3516 118.285 42.0859 119.441 42.0859C120.863 42.0859 122.043 42.5117 122.98 43.3633C123.926 44.2148 124.43 45.3203 124.492 46.6797H122.441C122.379 45.8594 122.066 45.1875 121.504 44.6641C120.949 44.1328 120.262 43.8672 119.441 43.8672C118.34 43.8672 117.484 44.2656 116.875 45.0625C116.273 45.8516 115.973 46.9961 115.973 48.4961V48.9062C115.973 50.3672 116.273 51.4922 116.875 52.2812C117.477 53.0703 118.336 53.4648 119.453 53.4648ZM132.191 55.2344C130.473 55.2344 129.074 54.6719 127.996 53.5469C126.918 52.4141 126.379 50.9023 126.379 49.0117V48.6133C126.379 47.3555 126.617 46.2344 127.094 45.25C127.578 44.2578 128.25 43.4844 129.109 42.9297C129.977 42.3672 130.914 42.0859 131.922 42.0859C133.57 42.0859 134.852 42.6289 135.766 43.7148C136.68 44.8008 137.137 46.3555 137.137 48.3789V49.2812H128.547C128.578 50.5312 128.941 51.543 129.637 52.3164C130.34 53.082 131.23 53.4648 132.309 53.4648C133.074 53.4648 133.723 53.3086 134.254 52.9961C134.785 52.6836 135.25 52.2695 135.648 51.7539L136.973 52.7852C135.91 54.418 134.316 55.2344 132.191 55.2344ZM131.922 43.8672C131.047 43.8672 130.312 44.1875 129.719 44.8281C129.125 45.4609 128.758 46.3516 128.617 47.5H134.969V47.3359C134.906 46.2344 134.609 45.3828 134.078 44.7812C133.547 44.1719 132.828 43.8672 131.922 43.8672ZM147.039 51.6367C147.039 51.0508 146.816 50.5977 146.371 50.2773C145.934 49.9492 145.164 49.668 144.062 49.4336C142.969 49.1992 142.098 48.918 141.449 48.5898C140.809 48.2617 140.332 47.8711 140.02 47.418C139.715 46.9648 139.562 46.4258 139.562 45.8008C139.562 44.7617 140 43.8828 140.875 43.1641C141.758 42.4453 142.883 42.0859 144.25 42.0859C145.688 42.0859 146.852 42.457 147.742 43.1992C148.641 43.9414 149.09 44.8906 149.09 46.0469H146.91C146.91 45.4531 146.656 44.9414 146.148 44.5117C145.648 44.082 145.016 43.8672 144.25 43.8672C143.461 43.8672 142.844 44.0391 142.398 44.3828C141.953 44.7266 141.73 45.1758 141.73 45.7305C141.73 46.2539 141.938 46.6484 142.352 46.9141C142.766 47.1797 143.512 47.4336 144.59 47.6758C145.676 47.918 146.555 48.207 147.227 48.543C147.898 48.8789 148.395 49.2852 148.715 49.7617C149.043 50.2305 149.207 50.8047 149.207 51.4844C149.207 52.6172 148.754 53.5273 147.848 54.2148C146.941 54.8945 145.766 55.2344 144.32 55.2344C143.305 55.2344 142.406 55.0547 141.625 54.6953C140.844 54.3359 140.23 53.8359 139.785 53.1953C139.348 52.5469 139.129 51.8477 139.129 51.0977H141.297C141.336 51.8242 141.625 52.4023 142.164 52.832C142.711 53.2539 143.43 53.4648 144.32 53.4648C145.141 53.4648 145.797 53.3008 146.289 52.9727C146.789 52.6367 147.039 52.1914 147.039 51.6367ZM159.414 51.6367C159.414 51.0508 159.191 50.5977 158.746 50.2773C158.309 49.9492 157.539 49.668 156.438 49.4336C155.344 49.1992 154.473 48.918 153.824 48.5898C153.184 48.2617 152.707 47.8711 152.395 47.418C152.09 46.9648 151.938 46.4258 151.938 45.8008C151.938 44.7617 152.375 43.8828 153.25 43.1641C154.133 42.4453 155.258 42.0859 156.625 42.0859C158.062 42.0859 159.227 42.457 160.117 43.1992C161.016 43.9414 161.465 44.8906 161.465 46.0469H159.285C159.285 45.4531 159.031 44.9414 158.523 44.5117C158.023 44.082 157.391 43.8672 156.625 43.8672C155.836 43.8672 155.219 44.0391 154.773 44.3828C154.328 44.7266 154.105 45.1758 154.105 45.7305C154.105 46.2539 154.312 46.6484 154.727 46.9141C155.141 47.1797 155.887 47.4336 156.965 47.6758C158.051 47.918 158.93 48.207 159.602 48.543C160.273 48.8789 160.77 49.2852 161.09 49.7617C161.418 50.2305 161.582 50.8047 161.582 51.4844C161.582 52.6172 161.129 53.5273 160.223 54.2148C159.316 54.8945 158.141 55.2344 156.695 55.2344C155.68 55.2344 154.781 55.0547 154 54.6953C153.219 54.3359 152.605 53.8359 152.16 53.1953C151.723 52.5469 151.504 51.8477 151.504 51.0977H153.672C153.711 51.8242 154 52.4023 154.539 52.832C155.086 53.2539 155.805 53.4648 156.695 53.4648C157.516 53.4648 158.172 53.3008 158.664 52.9727C159.164 52.6367 159.414 52.1914 159.414 51.6367ZM172.234 55C172.109 54.75 172.008 54.3047 171.93 53.6641C170.922 54.7109 169.719 55.2344 168.32 55.2344C167.07 55.2344 166.043 54.8828 165.238 54.1797C164.441 53.4688 164.043 52.5703 164.043 51.4844C164.043 50.1641 164.543 49.1406 165.543 48.4141C166.551 47.6797 167.965 47.3125 169.785 47.3125H171.895V46.3164C171.895 45.5586 171.668 44.957 171.215 44.5117C170.762 44.0586 170.094 43.832 169.211 43.832C168.438 43.832 167.789 44.0273 167.266 44.418C166.742 44.8086 166.48 45.2812 166.48 45.8359H164.301C164.301 45.2031 164.523 44.5938 164.969 44.0078C165.422 43.4141 166.031 42.9453 166.797 42.6016C167.57 42.2578 168.418 42.0859 169.34 42.0859C170.801 42.0859 171.945 42.4531 172.773 43.1875C173.602 43.9141 174.031 44.918 174.062 46.1992V52.0352C174.062 53.1992 174.211 54.125 174.508 54.8125V55H172.234ZM168.637 53.3477C169.316 53.3477 169.961 53.1719 170.57 52.8203C171.18 52.4688 171.621 52.0117 171.895 51.4492V48.8477H170.195C167.539 48.8477 166.211 49.625 166.211 51.1797C166.211 51.8594 166.438 52.3906 166.891 52.7734C167.344 53.1562 167.926 53.3477 168.637 53.3477ZM179.5 42.3203L179.559 43.7266C180.488 42.6328 181.742 42.0859 183.32 42.0859C185.094 42.0859 186.301 42.7656 186.941 44.125C187.363 43.5156 187.91 43.0234 188.582 42.6484C189.262 42.2734 190.062 42.0859 190.984 42.0859C193.766 42.0859 195.18 43.5586 195.227 46.5039V55H193.059V46.6328C193.059 45.7266 192.852 45.0508 192.438 44.6055C192.023 44.1523 191.328 43.9258 190.352 43.9258C189.547 43.9258 188.879 44.168 188.348 44.6523C187.816 45.1289 187.508 45.7734 187.422 46.5859V55H185.242V46.6914C185.242 44.8477 184.34 43.9258 182.535 43.9258C181.113 43.9258 180.141 44.5312 179.617 45.7422V55H177.449V42.3203H179.5ZM203.77 55.2344C202.051 55.2344 200.652 54.6719 199.574 53.5469C198.496 52.4141 197.957 50.9023 197.957 49.0117V48.6133C197.957 47.3555 198.195 46.2344 198.672 45.25C199.156 44.2578 199.828 43.4844 200.688 42.9297C201.555 42.3672 202.492 42.0859 203.5 42.0859C205.148 42.0859 206.43 42.6289 207.344 43.7148C208.258 44.8008 208.715 46.3555 208.715 48.3789V49.2812H200.125C200.156 50.5312 200.52 51.543 201.215 52.3164C201.918 53.082 202.809 53.4648 203.887 53.4648C204.652 53.4648 205.301 53.3086 205.832 52.9961C206.363 52.6836 206.828 52.2695 207.227 51.7539L208.551 52.7852C207.488 54.418 205.895 55.2344 203.77 55.2344ZM203.5 43.8672C202.625 43.8672 201.891 44.1875 201.297 44.8281C200.703 45.4609 200.336 46.3516 200.195 47.5H206.547V47.3359C206.484 46.2344 206.188 45.3828 205.656 44.7812C205.125 44.1719 204.406 43.8672 203.5 43.8672ZM213.285 42.3203L213.355 43.9141C214.324 42.6953 215.59 42.0859 217.152 42.0859C219.832 42.0859 221.184 43.5977 221.207 46.6211V55H219.039V46.6094C219.031 45.6953 218.82 45.0195 218.406 44.582C218 44.1445 217.363 43.9258 216.496 43.9258C215.793 43.9258 215.176 44.1133 214.645 44.4883C214.113 44.8633 213.699 45.3555 213.402 45.9648V55H211.234V42.3203H213.285ZM227.418 39.25V42.3203H229.785V43.9961H227.418V51.8594C227.418 52.3672 227.523 52.75 227.734 53.0078C227.945 53.2578 228.305 53.3828 228.812 53.3828C229.062 53.3828 229.406 53.3359 229.844 53.2422V55C229.273 55.1562 228.719 55.2344 228.18 55.2344C227.211 55.2344 226.48 54.9414 225.988 54.3555C225.496 53.7695 225.25 52.9375 225.25 51.8594V43.9961H222.941V42.3203H225.25V39.25H227.418ZM231.52 48.543C231.52 47.3008 231.762 46.1836 232.246 45.1914C232.738 44.1992 233.418 43.4336 234.285 42.8945C235.16 42.3555 236.156 42.0859 237.273 42.0859C239 42.0859 240.395 42.6836 241.457 43.8789C242.527 45.0742 243.062 46.6641 243.062 48.6484V48.8008C243.062 50.0352 242.824 51.1445 242.348 52.1289C241.879 53.1055 241.203 53.8672 240.32 54.4141C239.445 54.9609 238.438 55.2344 237.297 55.2344C235.578 55.2344 234.184 54.6367 233.113 53.4414C232.051 52.2461 231.52 50.6641 231.52 48.6953V48.543ZM233.699 48.8008C233.699 50.207 234.023 51.3359 234.672 52.1875C235.328 53.0391 236.203 53.4648 237.297 53.4648C238.398 53.4648 239.273 53.0352 239.922 52.1758C240.57 51.3086 240.895 50.0977 240.895 48.543C240.895 47.1523 240.562 46.0273 239.898 45.168C239.242 44.3008 238.367 43.8672 237.273 43.8672C236.203 43.8672 235.34 44.293 234.684 45.1445C234.027 45.9961 233.699 47.2148 233.699 48.8008ZM251.207 48.5547C251.207 46.6094 251.668 45.0469 252.59 43.8672C253.512 42.6797 254.719 42.0859 256.211 42.0859C257.695 42.0859 258.871 42.5938 259.738 43.6094V37H261.906V55H259.914L259.809 53.6406C258.941 54.7031 257.734 55.2344 256.188 55.2344C254.719 55.2344 253.52 54.6328 252.59 53.4297C251.668 52.2266 251.207 50.6562 251.207 48.7188V48.5547ZM253.375 48.8008C253.375 50.2383 253.672 51.3633 254.266 52.1758C254.859 52.9883 255.68 53.3945 256.727 53.3945C258.102 53.3945 259.105 52.7773 259.738 51.543V45.7188C259.09 44.5234 258.094 43.9258 256.75 43.9258C255.688 43.9258 254.859 44.3359 254.266 45.1562C253.672 45.9766 253.375 47.1914 253.375 48.8008ZM270.543 55.2344C268.824 55.2344 267.426 54.6719 266.348 53.5469C265.27 52.4141 264.73 50.9023 264.73 49.0117V48.6133C264.73 47.3555 264.969 46.2344 265.445 45.25C265.93 44.2578 266.602 43.4844 267.461 42.9297C268.328 42.3672 269.266 42.0859 270.273 42.0859C271.922 42.0859 273.203 42.6289 274.117 43.7148C275.031 44.8008 275.488 46.3555 275.488 48.3789V49.2812H266.898C266.93 50.5312 267.293 51.543 267.988 52.3164C268.691 53.082 269.582 53.4648 270.66 53.4648C271.426 53.4648 272.074 53.3086 272.605 52.9961C273.137 52.6836 273.602 52.2695 274 51.7539L275.324 52.7852C274.262 54.418 272.668 55.2344 270.543 55.2344ZM270.273 43.8672C269.398 43.8672 268.664 44.1875 268.07 44.8281C267.477 45.4609 267.109 46.3516 266.969 47.5H273.32V47.3359C273.258 46.2344 272.961 45.3828 272.43 44.7812C271.898 44.1719 271.18 43.8672 270.273 43.8672ZM286.715 55H284.465V37.9375H286.715V55ZM292.539 42.3203L292.598 43.7266C293.527 42.6328 294.781 42.0859 296.359 42.0859C298.133 42.0859 299.34 42.7656 299.98 44.125C300.402 43.5156 300.949 43.0234 301.621 42.6484C302.301 42.2734 303.102 42.0859 304.023 42.0859C306.805 42.0859 308.219 43.5586 308.266 46.5039V55H306.098V46.6328C306.098 45.7266 305.891 45.0508 305.477 44.6055C305.062 44.1523 304.367 43.9258 303.391 43.9258C302.586 43.9258 301.918 44.168 301.387 44.6523C300.855 45.1289 300.547 45.7734 300.461 46.5859V55H298.281V46.6914C298.281 44.8477 297.379 43.9258 295.574 43.9258C294.152 43.9258 293.18 44.5312 292.656 45.7422V55H290.488V42.3203H292.539ZM319.375 55C319.25 54.75 319.148 54.3047 319.07 53.6641C318.062 54.7109 316.859 55.2344 315.461 55.2344C314.211 55.2344 313.184 54.8828 312.379 54.1797C311.582 53.4688 311.184 52.5703 311.184 51.4844C311.184 50.1641 311.684 49.1406 312.684 48.4141C313.691 47.6797 315.105 47.3125 316.926 47.3125H319.035V46.3164C319.035 45.5586 318.809 44.957 318.355 44.5117C317.902 44.0586 317.234 43.832 316.352 43.832C315.578 43.832 314.93 44.0273 314.406 44.418C313.883 44.8086 313.621 45.2812 313.621 45.8359H311.441C311.441 45.2031 311.664 44.5938 312.109 44.0078C312.562 43.4141 313.172 42.9453 313.938 42.6016C314.711 42.2578 315.559 42.0859 316.48 42.0859C317.941 42.0859 319.086 42.4531 319.914 43.1875C320.742 43.9141 321.172 44.918 321.203 46.1992V52.0352C321.203 53.1992 321.352 54.125 321.648 54.8125V55H319.375ZM315.777 53.3477C316.457 53.3477 317.102 53.1719 317.711 52.8203C318.32 52.4688 318.762 52.0117 319.035 51.4492V48.8477H317.336C314.68 48.8477 313.352 49.625 313.352 51.1797C313.352 51.8594 313.578 52.3906 314.031 52.7734C314.484 53.1562 315.066 53.3477 315.777 53.3477ZM324.086 48.5547C324.086 46.5781 324.543 45.0078 325.457 43.8438C326.371 42.6719 327.582 42.0859 329.09 42.0859C330.637 42.0859 331.844 42.6328 332.711 43.7266L332.816 42.3203H334.797V54.6953C334.797 56.3359 334.309 57.6289 333.332 58.5742C332.363 59.5195 331.059 59.9922 329.418 59.9922C328.504 59.9922 327.609 59.7969 326.734 59.4062C325.859 59.0156 325.191 58.4805 324.73 57.8008L325.855 56.5C326.785 57.6484 327.922 58.2227 329.266 58.2227C330.32 58.2227 331.141 57.9258 331.727 57.332C332.32 56.7383 332.617 55.9023 332.617 54.8242V53.7344C331.75 54.7344 330.566 55.2344 329.066 55.2344C327.582 55.2344 326.379 54.6367 325.457 53.4414C324.543 52.2461 324.086 50.6172 324.086 48.5547ZM326.266 48.8008C326.266 50.2305 326.559 51.3555 327.145 52.1758C327.73 52.9883 328.551 53.3945 329.605 53.3945C330.973 53.3945 331.977 52.7734 332.617 51.5312V45.7422C331.953 44.5312 330.957 43.9258 329.629 43.9258C328.574 43.9258 327.75 44.3359 327.156 45.1562C326.562 45.9766 326.266 47.1914 326.266 48.8008ZM343.34 55.2344C341.621 55.2344 340.223 54.6719 339.145 53.5469C338.066 52.4141 337.527 50.9023 337.527 49.0117V48.6133C337.527 47.3555 337.766 46.2344 338.242 45.25C338.727 44.2578 339.398 43.4844 340.258 42.9297C341.125 42.3672 342.062 42.0859 343.07 42.0859C344.719 42.0859 346 42.6289 346.914 43.7148C347.828 44.8008 348.285 46.3555 348.285 48.3789V49.2812H339.695C339.727 50.5312 340.09 51.543 340.785 52.3164C341.488 53.082 342.379 53.4648 343.457 53.4648C344.223 53.4648 344.871 53.3086 345.402 52.9961C345.934 52.6836 346.398 52.2695 346.797 51.7539L348.121 52.7852C347.059 54.418 345.465 55.2344 343.34 55.2344ZM343.07 43.8672C342.195 43.8672 341.461 44.1875 340.867 44.8281C340.273 45.4609 339.906 46.3516 339.766 47.5H346.117V47.3359C346.055 46.2344 345.758 45.3828 345.227 44.7812C344.695 44.1719 343.977 43.8672 343.07 43.8672ZM352.855 42.3203L352.926 43.9141C353.895 42.6953 355.16 42.0859 356.723 42.0859C359.402 42.0859 360.754 43.5977 360.777 46.6211V55H358.609V46.6094C358.602 45.6953 358.391 45.0195 357.977 44.582C357.57 44.1445 356.934 43.9258 356.066 43.9258C355.363 43.9258 354.746 44.1133 354.215 44.4883C353.684 44.8633 353.27 45.3555 352.973 45.9648V55H350.805V42.3203H352.855ZM371.43 51.6367C371.43 51.0508 371.207 50.5977 370.762 50.2773C370.324 49.9492 369.555 49.668 368.453 49.4336C367.359 49.1992 366.488 48.918 365.84 48.5898C365.199 48.2617 364.723 47.8711 364.41 47.418C364.105 46.9648 363.953 46.4258 363.953 45.8008C363.953 44.7617 364.391 43.8828 365.266 43.1641C366.148 42.4453 367.273 42.0859 368.641 42.0859C370.078 42.0859 371.242 42.457 372.133 43.1992C373.031 43.9414 373.48 44.8906 373.48 46.0469H371.301C371.301 45.4531 371.047 44.9414 370.539 44.5117C370.039 44.082 369.406 43.8672 368.641 43.8672C367.852 43.8672 367.234 44.0391 366.789 44.3828C366.344 44.7266 366.121 45.1758 366.121 45.7305C366.121 46.2539 366.328 46.6484 366.742 46.9141C367.156 47.1797 367.902 47.4336 368.98 47.6758C370.066 47.918 370.945 48.207 371.617 48.543C372.289 48.8789 372.785 49.2852 373.105 49.7617C373.434 50.2305 373.598 50.8047 373.598 51.4844C373.598 52.6172 373.145 53.5273 372.238 54.2148C371.332 54.8945 370.156 55.2344 368.711 55.2344C367.695 55.2344 366.797 55.0547 366.016 54.6953C365.234 54.3359 364.621 53.8359 364.176 53.1953C363.738 52.5469 363.52 51.8477 363.52 51.0977H365.688C365.727 51.8242 366.016 52.4023 366.555 52.832C367.102 53.2539 367.82 53.4648 368.711 53.4648C369.531 53.4648 370.188 53.3008 370.68 52.9727C371.18 52.6367 371.43 52.1914 371.43 51.6367ZM393.086 48.8008C393.086 50.7305 392.645 52.2852 391.762 53.4648C390.879 54.6445 389.684 55.2344 388.176 55.2344C386.637 55.2344 385.426 54.7461 384.543 53.7695V59.875H382.375V42.3203H384.355L384.461 43.7266C385.344 42.6328 386.57 42.0859 388.141 42.0859C389.664 42.0859 390.867 42.6602 391.75 43.8086C392.641 44.957 393.086 46.5547 393.086 48.6016V48.8008ZM390.918 48.5547C390.918 47.125 390.613 45.9961 390.004 45.168C389.395 44.3398 388.559 43.9258 387.496 43.9258C386.184 43.9258 385.199 44.5078 384.543 45.6719V51.7305C385.191 52.8867 386.184 53.4648 387.52 53.4648C388.559 53.4648 389.383 53.0547 389.992 52.2344C390.609 51.4062 390.918 50.1797 390.918 48.5547ZM395.277 48.543C395.277 47.3008 395.52 46.1836 396.004 45.1914C396.496 44.1992 397.176 43.4336 398.043 42.8945C398.918 42.3555 399.914 42.0859 401.031 42.0859C402.758 42.0859 404.152 42.6836 405.215 43.8789C406.285 45.0742 406.82 46.6641 406.82 48.6484V48.8008C406.82 50.0352 406.582 51.1445 406.105 52.1289C405.637 53.1055 404.961 53.8672 404.078 54.4141C403.203 54.9609 402.195 55.2344 401.055 55.2344C399.336 55.2344 397.941 54.6367 396.871 53.4414C395.809 52.2461 395.277 50.6641 395.277 48.6953V48.543ZM397.457 48.8008C397.457 50.207 397.781 51.3359 398.43 52.1875C399.086 53.0391 399.961 53.4648 401.055 53.4648C402.156 53.4648 403.031 53.0352 403.68 52.1758C404.328 51.3086 404.652 50.0977 404.652 48.543C404.652 47.1523 404.32 46.0273 403.656 45.168C403 44.3008 402.125 43.8672 401.031 43.8672C399.961 43.8672 399.098 44.293 398.441 45.1445C397.785 45.9961 397.457 47.2148 397.457 48.8008ZM415.668 44.2656C415.34 44.2109 414.984 44.1836 414.602 44.1836C413.18 44.1836 412.215 44.7891 411.707 46V55H409.539V42.3203H411.648L411.684 43.7852C412.395 42.6523 413.402 42.0859 414.707 42.0859C415.129 42.0859 415.449 42.1406 415.668 42.25V44.2656ZM436.516 49.5859C436.305 51.3906 435.637 52.7852 434.512 53.7695C433.395 54.7461 431.906 55.2344 430.047 55.2344C428.031 55.2344 426.414 54.5117 425.195 53.0664C423.984 51.6211 423.379 49.6875 423.379 47.2656V45.625C423.379 44.0391 423.66 42.6445 424.223 41.4414C424.793 40.2383 425.598 39.3164 426.637 38.6758C427.676 38.0273 428.879 37.7031 430.246 37.7031C432.059 37.7031 433.512 38.2109 434.605 39.2266C435.699 40.2344 436.336 41.6328 436.516 43.4219H434.254C434.059 42.0625 433.633 41.0781 432.977 40.4688C432.328 39.8594 431.418 39.5547 430.246 39.5547C428.809 39.5547 427.68 40.0859 426.859 41.1484C426.047 42.2109 425.641 43.7227 425.641 45.6836V47.3359C425.641 49.1875 426.027 50.6602 426.801 51.7539C427.574 52.8477 428.656 53.3945 430.047 53.3945C431.297 53.3945 432.254 53.1133 432.918 52.5508C433.59 51.9805 434.035 50.9922 434.254 49.5859H436.516ZM447.086 55C446.961 54.75 446.859 54.3047 446.781 53.6641C445.773 54.7109 444.57 55.2344 443.172 55.2344C441.922 55.2344 440.895 54.8828 440.09 54.1797C439.293 53.4688 438.895 52.5703 438.895 51.4844C438.895 50.1641 439.395 49.1406 440.395 48.4141C441.402 47.6797 442.816 47.3125 444.637 47.3125H446.746V46.3164C446.746 45.5586 446.52 44.957 446.066 44.5117C445.613 44.0586 444.945 43.832 444.062 43.832C443.289 43.832 442.641 44.0273 442.117 44.418C441.594 44.8086 441.332 45.2812 441.332 45.8359H439.152C439.152 45.2031 439.375 44.5938 439.82 44.0078C440.273 43.4141 440.883 42.9453 441.648 42.6016C442.422 42.2578 443.27 42.0859 444.191 42.0859C445.652 42.0859 446.797 42.4531 447.625 43.1875C448.453 43.9141 448.883 44.918 448.914 46.1992V52.0352C448.914 53.1992 449.062 54.125 449.359 54.8125V55H447.086ZM443.488 53.3477C444.168 53.3477 444.812 53.1719 445.422 52.8203C446.031 52.4688 446.473 52.0117 446.746 51.4492V48.8477H445.047C442.391 48.8477 441.062 49.625 441.062 51.1797C441.062 51.8594 441.289 52.3906 441.742 52.7734C442.195 53.1562 442.777 53.3477 443.488 53.3477ZM455.254 39.25V42.3203H457.621V43.9961H455.254V51.8594C455.254 52.3672 455.359 52.75 455.57 53.0078C455.781 53.2578 456.141 53.3828 456.648 53.3828C456.898 53.3828 457.242 53.3359 457.68 53.2422V55C457.109 55.1562 456.555 55.2344 456.016 55.2344C455.047 55.2344 454.316 54.9414 453.824 54.3555C453.332 53.7695 453.086 52.9375 453.086 51.8594V43.9961H450.777V42.3203H453.086V39.25H455.254ZM465.426 55.2344C463.707 55.2344 462.309 54.6719 461.23 53.5469C460.152 52.4141 459.613 50.9023 459.613 49.0117V48.6133C459.613 47.3555 459.852 46.2344 460.328 45.25C460.812 44.2578 461.484 43.4844 462.344 42.9297C463.211 42.3672 464.148 42.0859 465.156 42.0859C466.805 42.0859 468.086 42.6289 469 43.7148C469.914 44.8008 470.371 46.3555 470.371 48.3789V49.2812H461.781C461.812 50.5312 462.176 51.543 462.871 52.3164C463.574 53.082 464.465 53.4648 465.543 53.4648C466.309 53.4648 466.957 53.3086 467.488 52.9961C468.02 52.6836 468.484 52.2695 468.883 51.7539L470.207 52.7852C469.145 54.418 467.551 55.2344 465.426 55.2344ZM465.156 43.8672C464.281 43.8672 463.547 44.1875 462.953 44.8281C462.359 45.4609 461.992 46.3516 461.852 47.5H468.203V47.3359C468.141 46.2344 467.844 45.3828 467.312 44.7812C466.781 44.1719 466.062 43.8672 465.156 43.8672ZM472.375 48.5547C472.375 46.5781 472.832 45.0078 473.746 43.8438C474.66 42.6719 475.871 42.0859 477.379 42.0859C478.926 42.0859 480.133 42.6328 481 43.7266L481.105 42.3203H483.086V54.6953C483.086 56.3359 482.598 57.6289 481.621 58.5742C480.652 59.5195 479.348 59.9922 477.707 59.9922C476.793 59.9922 475.898 59.7969 475.023 59.4062C474.148 59.0156 473.48 58.4805 473.02 57.8008L474.145 56.5C475.074 57.6484 476.211 58.2227 477.555 58.2227C478.609 58.2227 479.43 57.9258 480.016 57.332C480.609 56.7383 480.906 55.9023 480.906 54.8242V53.7344C480.039 54.7344 478.855 55.2344 477.355 55.2344C475.871 55.2344 474.668 54.6367 473.746 53.4414C472.832 52.2461 472.375 50.6172 472.375 48.5547ZM474.555 48.8008C474.555 50.2305 474.848 51.3555 475.434 52.1758C476.02 52.9883 476.84 53.3945 477.895 53.3945C479.262 53.3945 480.266 52.7734 480.906 51.5312V45.7422C480.242 44.5312 479.246 43.9258 477.918 43.9258C476.863 43.9258 476.039 44.3359 475.445 45.1562C474.852 45.9766 474.555 47.1914 474.555 48.8008ZM485.793 48.543C485.793 47.3008 486.035 46.1836 486.52 45.1914C487.012 44.1992 487.691 43.4336 488.559 42.8945C489.434 42.3555 490.43 42.0859 491.547 42.0859C493.273 42.0859 494.668 42.6836 495.73 43.8789C496.801 45.0742 497.336 46.6641 497.336 48.6484V48.8008C497.336 50.0352 497.098 51.1445 496.621 52.1289C496.152 53.1055 495.477 53.8672 494.594 54.4141C493.719 54.9609 492.711 55.2344 491.57 55.2344C489.852 55.2344 488.457 54.6367 487.387 53.4414C486.324 52.2461 485.793 50.6641 485.793 48.6953V48.543ZM487.973 48.8008C487.973 50.207 488.297 51.3359 488.945 52.1875C489.602 53.0391 490.477 53.4648 491.57 53.4648C492.672 53.4648 493.547 53.0352 494.195 52.1758C494.844 51.3086 495.168 50.0977 495.168 48.543C495.168 47.1523 494.836 46.0273 494.172 45.168C493.516 44.3008 492.641 43.8672 491.547 43.8672C490.477 43.8672 489.613 44.293 488.957 45.1445C488.301 45.9961 487.973 47.2148 487.973 48.8008ZM506.184 44.2656C505.855 44.2109 505.5 44.1836 505.117 44.1836C503.695 44.1836 502.73 44.7891 502.223 46V55H500.055V42.3203H502.164L502.199 43.7852C502.91 42.6523 503.918 42.0859 505.223 42.0859C505.645 42.0859 505.965 42.1406 506.184 42.25V44.2656ZM510.543 55H508.375V42.3203H510.543V55ZM508.199 38.957C508.199 38.6055 508.305 38.3086 508.516 38.0664C508.734 37.8242 509.055 37.7031 509.477 37.7031C509.898 37.7031 510.219 37.8242 510.438 38.0664C510.656 38.3086 510.766 38.6055 510.766 38.957C510.766 39.3086 510.656 39.6016 510.438 39.8359C510.219 40.0703 509.898 40.1875 509.477 40.1875C509.055 40.1875 508.734 40.0703 508.516 39.8359C508.305 39.6016 508.199 39.3086 508.199 38.957ZM521.852 55C521.727 54.75 521.625 54.3047 521.547 53.6641C520.539 54.7109 519.336 55.2344 517.938 55.2344C516.688 55.2344 515.66 54.8828 514.855 54.1797C514.059 53.4688 513.66 52.5703 513.66 51.4844C513.66 50.1641 514.16 49.1406 515.16 48.4141C516.168 47.6797 517.582 47.3125 519.402 47.3125H521.512V46.3164C521.512 45.5586 521.285 44.957 520.832 44.5117C520.379 44.0586 519.711 43.832 518.828 43.832C518.055 43.832 517.406 44.0273 516.883 44.418C516.359 44.8086 516.098 45.2812 516.098 45.8359H513.918C513.918 45.2031 514.141 44.5938 514.586 44.0078C515.039 43.4141 515.648 42.9453 516.414 42.6016C517.188 42.2578 518.035 42.0859 518.957 42.0859C520.418 42.0859 521.562 42.4531 522.391 43.1875C523.219 43.9141 523.648 44.918 523.68 46.1992V52.0352C523.68 53.1992 523.828 54.125 524.125 54.8125V55H521.852ZM518.254 53.3477C518.934 53.3477 519.578 53.1719 520.188 52.8203C520.797 52.4688 521.238 52.0117 521.512 51.4492V48.8477H519.812C517.156 48.8477 515.828 49.625 515.828 51.1797C515.828 51.8594 516.055 52.3906 516.508 52.7734C516.961 53.1562 517.543 53.3477 518.254 53.3477ZM534.461 51.6367C534.461 51.0508 534.238 50.5977 533.793 50.2773C533.355 49.9492 532.586 49.668 531.484 49.4336C530.391 49.1992 529.52 48.918 528.871 48.5898C528.23 48.2617 527.754 47.8711 527.441 47.418C527.137 46.9648 526.984 46.4258 526.984 45.8008C526.984 44.7617 527.422 43.8828 528.297 43.1641C529.18 42.4453 530.305 42.0859 531.672 42.0859C533.109 42.0859 534.273 42.457 535.164 43.1992C536.062 43.9414 536.512 44.8906 536.512 46.0469H534.332C534.332 45.4531 534.078 44.9414 533.57 44.5117C533.07 44.082 532.438 43.8672 531.672 43.8672C530.883 43.8672 530.266 44.0391 529.82 44.3828C529.375 44.7266 529.152 45.1758 529.152 45.7305C529.152 46.2539 529.359 46.6484 529.773 46.9141C530.188 47.1797 530.934 47.4336 532.012 47.6758C533.098 47.918 533.977 48.207 534.648 48.543C535.32 48.8789 535.816 49.2852 536.137 49.7617C536.465 50.2305 536.629 50.8047 536.629 51.4844C536.629 52.6172 536.176 53.5273 535.27 54.2148C534.363 54.8945 533.188 55.2344 531.742 55.2344C530.727 55.2344 529.828 55.0547 529.047 54.6953C528.266 54.3359 527.652 53.8359 527.207 53.1953C526.77 52.5469 526.551 51.8477 526.551 51.0977H528.719C528.758 51.8242 529.047 52.4023 529.586 52.832C530.133 53.2539 530.852 53.4648 531.742 53.4648C532.562 53.4648 533.219 53.3008 533.711 52.9727C534.211 52.6367 534.461 52.1914 534.461 51.6367ZM550.668 55.2344C548.949 55.2344 547.551 54.6719 546.473 53.5469C545.395 52.4141 544.855 50.9023 544.855 49.0117V48.6133C544.855 47.3555 545.094 46.2344 545.57 45.25C546.055 44.2578 546.727 43.4844 547.586 42.9297C548.453 42.3672 549.391 42.0859 550.398 42.0859C552.047 42.0859 553.328 42.6289 554.242 43.7148C555.156 44.8008 555.613 46.3555 555.613 48.3789V49.2812H547.023C547.055 50.5312 547.418 51.543 548.113 52.3164C548.816 53.082 549.707 53.4648 550.785 53.4648C551.551 53.4648 552.199 53.3086 552.73 52.9961C553.262 52.6836 553.727 52.2695 554.125 51.7539L555.449 52.7852C554.387 54.418 552.793 55.2344 550.668 55.2344ZM550.398 43.8672C549.523 43.8672 548.789 44.1875 548.195 44.8281C547.602 45.4609 547.234 46.3516 547.094 47.5H553.445V47.3359C553.383 46.2344 553.086 45.3828 552.555 44.7812C552.023 44.1719 551.305 43.8672 550.398 43.8672ZM573.848 50.5469H566.699L565.094 55H562.773L569.289 37.9375H571.258L577.785 55H575.477L573.848 50.5469ZM567.379 48.6953H573.18L570.273 40.7148L567.379 48.6953ZM585.871 44.2656C585.543 44.2109 585.188 44.1836 584.805 44.1836C583.383 44.1836 582.418 44.7891 581.91 46V55H579.742V42.3203H581.852L581.887 43.7852C582.598 42.6523 583.605 42.0859 584.91 42.0859C585.332 42.0859 585.652 42.1406 585.871 42.25V44.2656ZM592.902 55.2344C591.184 55.2344 589.785 54.6719 588.707 53.5469C587.629 52.4141 587.09 50.9023 587.09 49.0117V48.6133C587.09 47.3555 587.328 46.2344 587.805 45.25C588.289 44.2578 588.961 43.4844 589.82 42.9297C590.688 42.3672 591.625 42.0859 592.633 42.0859C594.281 42.0859 595.562 42.6289 596.477 43.7148C597.391 44.8008 597.848 46.3555 597.848 48.3789V49.2812H589.258C589.289 50.5312 589.652 51.543 590.348 52.3164C591.051 53.082 591.941 53.4648 593.02 53.4648C593.785 53.4648 594.434 53.3086 594.965 52.9961C595.496 52.6836 595.961 52.2695 596.359 51.7539L597.684 52.7852C596.621 54.418 595.027 55.2344 592.902 55.2344ZM592.633 43.8672C591.758 43.8672 591.023 44.1875 590.43 44.8281C589.836 45.4609 589.469 46.3516 589.328 47.5H595.68V47.3359C595.617 46.2344 595.32 45.3828 594.789 44.7812C594.258 44.1719 593.539 43.8672 592.633 43.8672ZM608.195 55C608.07 54.75 607.969 54.3047 607.891 53.6641C606.883 54.7109 605.68 55.2344 604.281 55.2344C603.031 55.2344 602.004 54.8828 601.199 54.1797C600.402 53.4688 600.004 52.5703 600.004 51.4844C600.004 50.1641 600.504 49.1406 601.504 48.4141C602.512 47.6797 603.926 47.3125 605.746 47.3125H607.855V46.3164C607.855 45.5586 607.629 44.957 607.176 44.5117C606.723 44.0586 606.055 43.832 605.172 43.832C604.398 43.832 603.75 44.0273 603.227 44.418C602.703 44.8086 602.441 45.2812 602.441 45.8359H600.262C600.262 45.2031 600.484 44.5938 600.93 44.0078C601.383 43.4141 601.992 42.9453 602.758 42.6016C603.531 42.2578 604.379 42.0859 605.301 42.0859C606.762 42.0859 607.906 42.4531 608.734 43.1875C609.562 43.9141 609.992 44.918 610.023 46.1992V52.0352C610.023 53.1992 610.172 54.125 610.469 54.8125V55H608.195ZM604.598 53.3477C605.277 53.3477 605.922 53.1719 606.531 52.8203C607.141 52.4688 607.582 52.0117 607.855 51.4492V48.8477H606.156C603.5 48.8477 602.172 49.625 602.172 51.1797C602.172 51.8594 602.398 52.3906 602.852 52.7734C603.305 53.1562 603.887 53.3477 604.598 53.3477ZM620.805 51.6367C620.805 51.0508 620.582 50.5977 620.137 50.2773C619.699 49.9492 618.93 49.668 617.828 49.4336C616.734 49.1992 615.863 48.918 615.215 48.5898C614.574 48.2617 614.098 47.8711 613.785 47.418C613.48 46.9648 613.328 46.4258 613.328 45.8008C613.328 44.7617 613.766 43.8828 614.641 43.1641C615.523 42.4453 616.648 42.0859 618.016 42.0859C619.453 42.0859 620.617 42.457 621.508 43.1992C622.406 43.9414 622.855 44.8906 622.855 46.0469H620.676C620.676 45.4531 620.422 44.9414 619.914 44.5117C619.414 44.082 618.781 43.8672 618.016 43.8672C617.227 43.8672 616.609 44.0391 616.164 44.3828C615.719 44.7266 615.496 45.1758 615.496 45.7305C615.496 46.2539 615.703 46.6484 616.117 46.9141C616.531 47.1797 617.277 47.4336 618.355 47.6758C619.441 47.918 620.32 48.207 620.992 48.543C621.664 48.8789 622.16 49.2852 622.48 49.7617C622.809 50.2305 622.973 50.8047 622.973 51.4844C622.973 52.6172 622.52 53.5273 621.613 54.2148C620.707 54.8945 619.531 55.2344 618.086 55.2344C617.07 55.2344 616.172 55.0547 615.391 54.6953C614.609 54.3359 613.996 53.8359 613.551 53.1953C613.113 52.5469 612.895 51.8477 612.895 51.0977H615.062C615.102 51.8242 615.391 52.4023 615.93 52.832C616.477 53.2539 617.195 53.4648 618.086 53.4648C618.906 53.4648 619.562 53.3008 620.055 52.9727C620.555 52.6367 620.805 52.1914 620.805 51.6367Z" fill="#D9CCC1"/>
<path d="M82.3457 22.9805V33H78.9707V7.40625H88.4102C91.2109 7.40625 93.4023 8.12109 94.9844 9.55078C96.5781 10.9805 97.375 12.873 97.375 15.2285C97.375 17.7129 96.5957 19.6289 95.0371 20.9766C93.4902 22.3125 91.2695 22.9805 88.375 22.9805H82.3457ZM82.3457 20.2207H88.4102C90.2148 20.2207 91.5977 19.7988 92.5586 18.9551C93.5195 18.0996 94 16.8691 94 15.2637C94 13.7402 93.5195 12.5215 92.5586 11.6074C91.5977 10.6934 90.2793 10.2188 88.6035 10.1836H82.3457V20.2207ZM95.5469 31.2949C95.5469 30.7324 95.7109 30.2637 96.0391 29.8887C96.3789 29.5137 96.8828 29.3262 97.5508 29.3262C98.2188 29.3262 98.7227 29.5137 99.0625 29.8887C99.4141 30.2637 99.5898 30.7324 99.5898 31.2949C99.5898 31.834 99.4141 32.2852 99.0625 32.6484C98.7227 33.0117 98.2188 33.1934 97.5508 33.1934C96.8828 33.1934 96.3789 33.0117 96.0391 32.6484C95.7109 32.2852 95.5469 31.834 95.5469 31.2949ZM109.1 33H105.725V7.40625H109.1V33ZM114.848 31.2949C114.848 30.7324 115.012 30.2637 115.34 29.8887C115.68 29.5137 116.184 29.3262 116.852 29.3262C117.52 29.3262 118.023 29.5137 118.363 29.8887C118.715 30.2637 118.891 30.7324 118.891 31.2949C118.891 31.834 118.715 32.2852 118.363 32.6484C118.023 33.0117 117.52 33.1934 116.852 33.1934C116.184 33.1934 115.68 33.0117 115.34 32.6484C115.012 32.2852 114.848 31.834 114.848 31.2949ZM143.605 24.8789C143.289 27.5859 142.287 29.6777 140.6 31.1543C138.924 32.6191 136.691 33.3516 133.902 33.3516C130.879 33.3516 128.453 32.2676 126.625 30.0996C124.809 27.9316 123.9 25.0312 123.9 21.3984V18.9375C123.9 16.5586 124.322 14.4668 125.166 12.6621C126.021 10.8574 127.229 9.47461 128.787 8.51367C130.346 7.54102 132.15 7.05469 134.201 7.05469C136.92 7.05469 139.1 7.81641 140.74 9.33984C142.381 10.8516 143.336 12.9492 143.605 15.6328H140.213C139.92 13.5938 139.281 12.1172 138.297 11.2031C137.324 10.2891 135.959 9.83203 134.201 9.83203C132.045 9.83203 130.352 10.6289 129.121 12.2227C127.902 13.8164 127.293 16.084 127.293 19.0254V21.5039C127.293 24.2812 127.873 26.4902 129.033 28.1309C130.193 29.7715 131.816 30.5918 133.902 30.5918C135.777 30.5918 137.213 30.1699 138.209 29.3262C139.217 28.4707 139.885 26.9883 140.213 24.8789H143.605ZM147.789 31.2949C147.789 30.7324 147.953 30.2637 148.281 29.8887C148.621 29.5137 149.125 29.3262 149.793 29.3262C150.461 29.3262 150.965 29.5137 151.305 29.8887C151.656 30.2637 151.832 30.7324 151.832 31.2949C151.832 31.834 151.656 32.2852 151.305 32.6484C150.965 33.0117 150.461 33.1934 149.793 33.1934C149.125 33.1934 148.621 33.0117 148.281 32.6484C147.953 32.2852 147.789 31.834 147.789 31.2949ZM171.854 26.3203H161.131L158.723 33H155.242L165.016 7.40625H167.969L177.76 33H174.297L171.854 26.3203ZM162.15 23.543H170.852L166.492 11.5723L162.15 23.543Z" fill="#D9CCC1"/>
<ellipse cx="33" cy="33.5" rx="33" ry="33.5" fill="#025159"/>
<path d="M48.3333 15.5833H17.6667C15.5583 15.5833 13.8333 17.1958 13.8333 19.1667V51.4167L21.5 44.25H48.3333C50.4417 44.25 52.1667 42.6375 52.1667 40.6667V19.1667C52.1667 17.1958 50.4417 15.5833 48.3333 15.5833ZM48.3333 40.6667H19.9667L17.6667 42.8167V19.1667H48.3333V40.6667ZM19.5833 37.0833L26.2917 29.0208L31.0833 34.3958L37.7917 26.3333L46.4167 37.0833" fill="#D9CCC1"/>
</svg>
